# AST/ASF file generated using VICON BodyLanguage
# -----------------------------------------------
:version 1.10
:name VICON
:units
  mass 1.0
  length 0.45
  angle deg
:documentation
   .ast/.asf automatically generated from VICON data using
   VICON BodyBuilder and BodyLanguage model FoxedUp or BRILLIANT.MOD
:root
   order TX TY TZ RX RY RZ
   axis XYZ
   position 0 0 0  
   orientation 0 0 0 
:bonedata
  begin
     id 1 
     name lhipjoint
     direction 0.521689 -0.742065 0.420928 
     length 2.47002 
     axis 0 0 0  XYZ
  end
  begin
     id 2 
     name lfemur
     direction 0.34202 -0.939693 0  
     length 7.24654  
     axis 0 0 20  XYZ
    dof rx ry rz
    limits (-160.0 20.0)
           (-70.0 70.0)
           (-60.0 70.0)
  end
  begin
     id 3 
     name ltibia
     direction 0.34202 -0.939693 0   
     length 8.04849   
     axis 0 0 20   XYZ
    dof rx
    limits (-10.0 170.0)
  end
  begin
     id 4 
     name lfoot
     direction 0.0745411 -0.2048 0.975961   
     length 1.72367   
     axis -90 7.62852e-016 20   XYZ
    dof rx rz
    limits (-45.0 90.0)
           (-70.0 20.0)
  end
  begin
     id 5 
     name ltoes
     direction 1.53556e-011 -4.21901e-011 1   
     length 0.87311   
     axis -90 7.62852e-016 20   XYZ
    dof rx
    limits (-90.0 20.0)
  end
  begin
     id 6 
     name rhipjoint
     direction -0.52849 -0.738415 0.418857   
     length 2.48223  
     axis 0 0 0  XYZ 
  end
  begin
     id 7 
     name rfemur
     direction -0.34202 -0.939693 0   
     length 7.15571   
     axis 0 0 -20   XYZ
    dof rx ry rz
    limits (-160.0 20.0)
           (-70.0 70.0)
           (-70.0 60.0)
  end
  begin
     id 8 
     name rtibia
     direction -0.34202 -0.939693 0   
     length 7.81659   
     axis 0 0 -20   XYZ
    dof rx
    limits (-10.0 170.0)
 end
 begin
     id 9 
     name rfoot
     direction -0.0917348 -0.252039 0.963359   
     length 1.84382  
     axis -90 -7.62852e-016 -20   XYZ
    dof rx rz
    limits (-45.0 90.0)
           (-20.0 70.0)
  end
  begin
     id 10 
     name rtoes
     direction -1.53551e-011 -4.21879e-011 1   
     length 0.927771   
     axis -90 -7.62852e-016 -20   XYZ
    dof rx
    limits (-90.0 20.0)
  end
  begin
     id 11 
     name lowerback
     direction 0.00583058 0.999822 0.0179296   
     length 2.1429   
     axis 0 0 0   XYZ
    dof rx ry rz
    limits (-20.0 45.0)
           (-30.0 30.0)
           (-30.0 30.0)
  end
  begin
     id 12 
     name upperback
     direction -0.0137999 0.999752 -0.0175071   
     length 2.14252   
     axis 0 0 0   XYZ
    dof rx ry rz
    limits (-20.0 45.0)
           (-30.0 30.0)
           (-30.0 30.0)
  end
  begin
     id 13 
     name thorax
     direction -0.0158036 0.99955 -0.0254909   
     length 2.1383   
     axis 0 0 0   XYZ
    dof rx ry rz
    limits (-20.0 45.0)
           (-30.0 30.0)
           (-30.0 30.0)
  end
  begin
     id 14 
     name lowerneck
     direction -0.0101179 0.999403 -0.0330262   
     length 1.65808   
     axis 0 0 0   XYZ
    dof rx ry rz
    limits (-20.0 45.0)
           (-30.0 30.0)
           (-30.0 30.0)
  end
  begin
     id 15 
     name upperneck
     direction 0.0497734 0.995978 -0.074501   
     length 1.5897   
     axis 0 0 0   XYZ
    dof rx ry rz
    limits (-20.0 45.0)
           (-30.0 30.0)
           (-30.0 30.0)
  end
  begin
     id 16
     name head
     direction 0.0189524 0.999519 -0.0245438  
     length 1.74024  
     axis 0 0 0   XYZ
    dof rx ry rz
    limits (-20.0 45.0)
           (-30.0 30.0)
           (-30.0 30.0)
  end
  begin
     id 17 
     name lclavicle
     direction 0.945604 0.324422 0.0241537  
     length 3.59089  
     axis 0 0 0   XYZ
    dof ry rz
    limits (-20.0 10.0)
           (0.0 20.0)
  end
  begin
     id 18 
     name lhumerus
     direction 1 -4.48964e-011 -2.63524e-027   
     length 5.2391   
     axis 180 -30 -90   XYZ
    dof rx ry rz
    limits (-60.0 90.0)
           (-90.0 90.0)
           (-90.0 90.0)
  end
  begin
     id 19
     name lradius
     direction 1 -4.48969e-011 3.86978e-028   
     length 3.31467   
     axis 180 -30 -90   XYZ
    dof rx
    limits (-10.0 170.0)
  end
  begin
     id 20
     name lwrist
     direction 1 -4.48963e-011 7.20928e-028   
     length 1.65734   
     axis -5.52449e-016 90 90   XYZ
    dof ry
    limits (-180.0 0.0)
 end
  begin
     id 21 
     name lhand
     direction 1 -4.48964e-011 1.44186e-027   
     length 0.9659   
     axis -9.20027e-016 90 90   XYZ
    dof rx rz
    limits (-90.0 90.0)
           (-45.0 45.0)
  end
  begin
     id 22 
     name lfingers
     direction 1 -4.48965e-011 2.88371e-027   
     length 0.778733   
     axis -1.84005e-015 90 90   XYZ
    dof rx
    limits (0.0 90.0)
  end
  begin
     id 23
     name lthumb
     direction 0.707107 -6.34931e-011 0.707107   
     length 1.11811   
     axis -90 45 2.85299e-015   XYZ
    dof rx rz
    limits (-45.0 45.0)
           (-45.0 45.0)
  end
  begin
     id 24 
     name rclavicle
     direction -0.923762 0.370785 0.0958234   
     length 3.54196  
     axis 0 0 0   XYZ 
    dof ry rz
    limits (-10.0 20.0)
           (-20.0 0.0)
  end
  begin
     id 25 
     name rhumerus
     direction -1 -4.48966e-011 1.18702e-017  
     length 5.30252   
     axis 180 30 90   XYZ
    dof rx ry rz
    limits (-90.0 60.0)
           (-90.0 90.0)
           (-90.0 90.0)
  end
  begin
     id 26 
     name rradius
     direction -1 -4.48966e-011 4.46736e-027   
     length 3.67875   
     axis 180 30 90   XYZ
    dof rx
    limits (-10.0 170.0)
  end
  begin
     id 27 
     name rwrist
     direction -1 -4.48966e-011 7.20928e-028   
     length 1.83937   
     axis -5.52449e-016 -90 -90   XYZ
    dof ry
    limits (-180.0 0.0)
  end
  begin
     id 28
     name rhand
     direction -1 -4.48973e-011 1.44186e-027   
     length 0.594811   
     axis -9.20027e-016 -90 -90   XYZ
    dof rx rz
    limits (-90.0 90.0)
           (-45.0 45.0)
  end
  begin
     id 29
     name rfingers
     direction -1 -4.48963e-011 2.88371e-027   
     length 0.479552   
     axis -1.84005e-015 -90 -90   XYZ
    dof rx
    limits (0.0 90.0)
  end
  begin
     id 30
     name rthumb
     direction -0.707107 -6.34932e-011 0.707107   
     length 0.688544   
     axis -90 -45 -2.85299e-015   XYZ
    dof rx rz
    limits (-45.0 45.0)
           (-45.0 45.0)
  end
:hierarchy
  begin
    root lhipjoint rhipjoint lowerback
    lhipjoint lfemur
    lfemur ltibia
    ltibia lfoot
    lfoot ltoes
    rhipjoint rfemur
    rfemur rtibia
    rtibia rfoot
    rfoot rtoes
    lowerback upperback
    upperback thorax
    thorax lowerneck lclavicle rclavicle
    lowerneck upperneck
    upperneck head
    lclavicle lhumerus
    lhumerus lradius
    lradius lwrist
    lwrist lhand lthumb
    lhand lfingers
    rclavicle rhumerus
    rhumerus rradius
    rradius rwrist
    rwrist rhand rthumb
    rhand rfingers
  end

#!OML:ASF E:\acrobat2\Project_11_07_03\Capture day 1\Session 1\Acrobat.ASF
:FULLY-SPECIFIED
:DEGREES
831
root 10.7373 28.2401 3.60847 13.2298 6.09869 3.72469
lowerback 8.43917 0.516217 5.18322
upperback 3.63348 1.11065 1.39495
thorax -0.889845 0.59323 -1.56814
lowerneck -2.42598 -3.91381 -4.73511
upperneck 9.90934 -4.98615 0.442957
head 3.80136 -2.60975 0.768967
rclavicle 3.97569e-015 3.02153e-014
rhumerus -30.9034 2.16082 -62.0868
rradius 50.7309
rwrist -0.964163
rhand -13.9478 -17.9531
rfingers 7.12502
rthumb 12.1795 -47.5786
lclavicle 3.97569e-015 3.02153e-014
lhumerus 2.46391 15.3469 17.388
lradius 74.5493
lwrist 10.7522
lhand -18.023 -29.2504
lfingers 7.12502
lthumb 8.24813 0.56855
rfemur -26.0702 -5.70675 18.9203
rtibia 22.7595
rfoot -6.26949 -11.9497
rtoes -1.44399
lfemur -26.8253 -4.88508 -21.1732
ltibia 37.777
lfoot -2.86966 -13.709
ltoes 24.4043
832
root 10.7499 28.2687 3.71765 13.1801 5.84287 3.78716
lowerback 8.33626 0.536991 5.03815
upperback 3.66572 1.11872 1.39812
thorax -0.802706 0.598261 -1.48252
lowerneck -2.52373 -3.81237 -4.66219
upperneck 9.99894 -4.83261 0.265335
head 3.83878 -2.53946 0.701692
rclavicle 8.74653e-015 3.02153e-014
rhumerus -31.0041 2.25145 -62.1456
rradius 51.2075
rwrist -0.982137
rhand -14.1877 -17.4834
rfingers 7.12502
rthumb 11.9481 -47.1224
lclavicle 8.74653e-015 3.02153e-014
lhumerus 3.21215 16.7972 16.4309
lradius 74.632
lwrist 11.437
lhand -17.9973 -29.8343
lfingers 7.12502
lthumb 8.2729 -0.0163143
rfemur -26.1698 -5.86713 18.4871
rtibia 22.1694
rfoot -5.1539 -11.5822
rtoes -3.221
lfemur -25.7183 -5.07381 -21.5649
ltibia 36.3397
lfoot -3.30893 -13.8483
ltoes 25.2209
833
root 10.7621 28.2956 3.82762 13.1106 5.58094 3.87731
lowerback 8.24044 0.552136 4.86549
upperback 3.6944 1.11796 1.37867
thorax -0.723915 0.598403 -1.40421
lowerneck -2.64578 -3.71592 -4.58408
upperneck 10.1303 -4.69032 0.149211
head 3.89854 -2.47262 0.652579
rclavicle 1.43125e-014 0
rhumerus -31.0495 2.3538 -62.2771
rradius 51.5947
rwrist -1.10103
rhand -14.4296 -17.0711
rfingers 7.12502
rthumb 11.7148 -46.7235
lclavicle 1.43125e-014 0
lhumerus 4.35308 18.4227 15.7206
lradius 74.4156
lwrist 11.8543
lhand -17.9033 -30.0904
lfingers 7.12502
lthumb 8.3637 -0.275977
rfemur -26.2681 -6.0446 17.9889
rtibia 21.7128
rfoot -4.41081 -11.0054
rtoes -6.15208
lfemur -24.5507 -5.17245 -21.9972
ltibia 34.6358
lfoot -4.01148 -13.8244
ltoes 25.9638
834
root 10.7745 28.3194 3.93918 12.9968 5.32702 3.97367
lowerback 8.16073 0.562873 4.69496
upperback 3.72367 1.11278 1.34469
thorax -0.653287 0.596171 -1.34196
lowerneck -2.79717 -3.63816 -4.49165
upperneck 10.3241 -4.57788 0.0937066
head 3.98918 -2.41819 0.618643
rclavicle -1.11319e-014 -4.77083e-015
rhumerus -31.0393 2.46787 -62.4665
rradius 51.8805
rwrist -1.33842
rhand -14.6826 -16.6915
rfingers 7.12502
rthumb 11.4708 -46.3577
lclavicle -1.11319e-014 -4.77083e-015
lhumerus 5.81196 20.2102 15.2667
lradius 74.0018
lwrist 11.9164
lhand -17.7199 -30.1606
lfingers 7.12502
lthumb 8.54064 -0.35333
rfemur -26.3481 -6.23308 17.4615
rtibia 21.4107
rfoot -3.97456 -10.2351
rtoes -10.2305
lfemur -23.3208 -5.18761 -22.441
ltibia 32.7102
lfoot -5.00008 -13.6536
ltoes 26.3902
835
root 10.7872 28.3382 4.05185 12.8381 5.10143 4.08632
lowerback 8.09322 0.567936 4.51306
upperback 3.75513 1.10039 1.30942
thorax -0.587735 0.590047 -1.27423
lowerneck -2.95618 -3.57611 -4.40427
upperneck 10.5542 -4.48863 0.0677989
head 4.09663 -2.37446 0.59395
rclavicle -1.82882e-014 0
rhumerus -30.9618 2.59316 -62.6798
rradius 52.0666
rwrist -1.65973
rhand -14.9159 -16.3495
rfingers 7.12502
rthumb 11.2459 -46.028
lclavicle -1.82882e-014 0
lhumerus 7.51376 22.1031 15.0593
lradius 73.4806
lwrist 11.6367
lhand -17.5014 -30.0379
lfingers 7.12502
lthumb 8.75149 -0.239327
rfemur -26.4209 -6.42976 16.8986
rtibia 21.2998
rfoot -3.76108 -9.34181
rtoes -14.8065
lfemur -22.0719 -5.14345 -22.9034
ltibia 30.6362
lfoot -6.18636 -13.3585
ltoes 26.3822
836
root 10.8009 28.3504 4.16477 12.6417 4.90707 4.22848
lowerback 8.03518 0.568831 4.30984
upperback 3.7896 1.08188 1.27654
thorax -0.52508 0.580485 -1.19174
lowerneck -3.13745 -3.52634 -4.36798
upperneck 10.8299 -4.4175 0.103601
head 4.22981 -2.33934 0.597234
rclavicle 8.74653e-015 6.36111e-015
rhumerus -30.8045 2.72418 -62.8978
rradius 52.1595
rwrist -2.0138
rhand -15.1071 -16.0445
rfingers 7.12502
rthumb 11.0615 -45.733
lclavicle 8.74653e-015 6.36111e-015
lhumerus 9.20898 23.9098 14.9453
lradius 73.0618
lwrist 11.2656
lhand -17.3452 -29.794
lfingers 7.12502
lthumb 8.90227 -0.00179449
rfemur -26.5188 -6.6412 16.2867
rtibia 21.4245
rfoot -3.69176 -8.41871
rtoes -18.9586
lfemur -20.8643 -5.06462 -23.4029
ltibia 28.5196
lfoot -7.42981 -12.971
ltoes 26.0398
837
root 10.8155 28.354 4.27565 12.4436 4.76773 4.39872
lowerback 7.9664 0.56252 4.09268
upperback 3.81678 1.0531 1.25132
thorax -0.464906 0.565305 -1.09266
lowerneck -3.31924 -3.4928 -4.2979
upperneck 11.1218 -4.36683 0.101473
head 4.36802 -2.31459 0.580871
rclavicle -4.29375e-014 -1.59028e-015
rhumerus -30.5528 2.8655 -63.1085
rradius 52.1552
rwrist -2.36585
rhand -15.2401 -15.759
rfingers 7.12502
rthumb 10.9332 -45.4543
lclavicle -4.29375e-014 -1.59028e-015
lhumerus 10.8512 25.5581 14.8701
lradius 72.7439
lwrist 10.8817
lhand -17.2829 -29.4645
lfingers 7.12502
lthumb 8.96235 0.325177
rfemur -26.7102 -6.90064 15.6453
rtibia 21.8787
rfoot -3.75717 -7.54826
rtoes -21.9845
lfemur -19.8137 -4.9851 -23.9342
ltibia 26.5212
lfoot -8.60993 -12.5338
ltoes 25.53
